<?xml version="1.0" standalone="no"?>
<!DOCTYPE svg PUBLIC "-//W3C//DTD SVG 20010904//EN"
 "http://www.w3.org/TR/2001/REC-SVG-20010904/DTD/svg10.dtd">
<svg version="1.0" xmlns="http://www.w3.org/2000/svg"
 width="48.000000pt" height="48.000000pt" viewBox="0 0 48.000000 48.000000"
 preserveAspectRatio="xMidYMid meet">
<g transform="translate(0.000000,48.000000) scale(0.100000,-0.100000)"
fill="#666" stroke="none">

<path d="M30 305 l0 -175 40 0 40 0 0 175 0 175 -40 0 -40 0 0 -175z"/>

<path d="M140 240 l0 -240 45 0 45 0 0 95 0 95 110 0 110 0 0 45 0 45 -110 0
-110 0 0 55 0 55 110 0 110 0 0 45 0 45 -155 0 -155 0 0 -240z"/>

<path d="M30 40 l0 -40 40 0 40 0 0 40 0 40 -40 0 -40 0 0 -40z"/>

</g>

</svg>